<svg width="27" height="23" viewBox="0 0 27 23" fill="none" xmlns="http://www.w3.org/2000/svg">
<path d="M8.12061 11.5C8.12061 11.3094 8.2101 11.1266 8.3694 10.9918C8.5287 10.857 8.74475 10.7812 8.97004 10.7812H18.0306C18.2559 10.7812 18.472 10.857 18.6313 10.9918C18.7906 11.1266 18.8801 11.3094 18.8801 11.5C18.8801 11.6906 18.7906 11.8734 18.6313 12.0082C18.472 12.143 18.2559 12.2188 18.0306 12.2188H8.97004C8.74475 12.2188 8.5287 12.143 8.3694 12.0082C8.2101 11.8734 8.12061 11.6906 8.12061 11.5ZM11.2352 13.6562C11.0099 13.6562 10.7938 13.732 10.6346 13.8668C10.4753 14.0016 10.3858 14.1844 10.3858 14.375C10.3858 14.5656 10.4753 14.7484 10.6346 14.8832C10.7938 15.018 11.0099 15.0938 11.2352 15.0938H15.7655C15.9908 15.0938 16.2068 15.018 16.3661 14.8832C16.5254 14.7484 16.6149 14.5656 16.6149 14.375C16.6149 14.1844 16.5254 14.0016 16.3661 13.8668C16.2068 13.732 15.9908 13.6562 15.7655 13.6562H11.2352Z" fill="black"/>
<path fill-rule="evenodd" clip-rule="evenodd" d="M16.2924 2.23114C16.4906 2.14594 16.72 2.13189 16.9303 2.19209C17.1405 2.25229 17.3144 2.38181 17.4136 2.55219L19.4344 6.0271C19.9107 6.04691 20.3454 6.08077 20.7384 6.12869C21.9154 6.2734 22.8896 6.58581 23.5818 7.32181C24.2739 8.05781 24.4255 8.94235 24.3441 9.96202C24.2661 10.9501 23.954 12.1969 23.5661 13.7541L23.0635 15.7734C22.8015 16.8246 22.5887 17.6766 22.3212 18.3417C22.0425 19.0365 21.6747 19.6067 21.0483 20.0427C20.4219 20.4788 19.6952 20.6676 18.8481 20.7567C18.0345 20.842 17.0202 20.842 15.7718 20.842H10.8721C9.62155 20.842 8.60839 20.842 7.79474 20.7567C6.94766 20.6676 6.22095 20.4788 5.59455 20.0427C4.96815 19.6067 4.60034 19.0365 4.32169 18.3426C4.05419 17.6766 3.84242 16.8246 3.57938 15.7743L3.0767 13.7551C2.68882 12.1969 2.37785 10.9501 2.29872 9.96202C2.21735 8.94235 2.36894 8.05877 3.06109 7.32181C3.75214 6.58581 4.72629 6.2734 5.90329 6.12869C6.29711 6.08141 6.7318 6.04755 7.20736 6.0271L9.23145 2.55219C9.33151 2.38317 9.50521 2.255 9.7147 2.19562C9.92418 2.13624 10.1525 2.15045 10.3498 2.23517C10.5472 2.31988 10.6976 2.46823 10.7683 2.64788C10.839 2.82754 10.8242 3.02393 10.7272 3.19427L9.09993 5.98973C9.50563 5.98781 9.93252 5.98717 10.3806 5.98781H16.2634C16.7114 5.98781 17.1383 5.98845 17.544 5.98973L15.9179 3.19427C15.8188 3.02384 15.8024 2.82655 15.8724 2.64577C15.9424 2.46499 16.0931 2.31551 16.2912 2.23019M6.33575 7.52881L5.88657 8.30123C5.83653 8.38577 5.80644 8.47798 5.79804 8.57257C5.78964 8.66715 5.8031 8.76223 5.83765 8.85231C5.87219 8.9424 5.92713 9.02572 5.9993 9.09746C6.07148 9.16921 6.15945 9.22796 6.25816 9.27033C6.35686 9.3127 6.46435 9.33785 6.57441 9.34434C6.68448 9.35082 6.79495 9.33851 6.89946 9.30811C7.00396 9.27771 7.10043 9.22983 7.18331 9.16721C7.26619 9.1046 7.33384 9.02851 7.38235 8.94331L8.25953 7.4349C8.89484 7.42531 9.61932 7.42435 10.4486 7.42435H16.1954C17.0246 7.42435 17.7491 7.42435 18.3844 7.43394L19.2616 8.94331C19.3617 9.11233 19.5354 9.2405 19.7449 9.29988C19.9543 9.35926 20.1826 9.34505 20.38 9.26033C20.5773 9.17562 20.7278 9.02727 20.7984 8.84761C20.8691 8.66796 20.8544 8.47157 20.7574 8.30123L20.3082 7.52881L20.5021 7.55085C21.4874 7.67256 21.9701 7.89394 22.2821 8.22456C22.5942 8.55615 22.7436 9.00944 22.6756 9.86331C22.6065 10.7354 22.3234 11.8816 21.9177 13.5098L21.4384 15.4264C21.1631 16.5333 20.9703 17.299 20.7407 17.8721C20.5178 18.4279 20.2904 18.7212 19.9972 18.9244C19.7052 19.1275 19.3229 19.2579 18.6464 19.3288C17.9453 19.4026 17.0336 19.4035 15.7172 19.4035H10.9256C9.61041 19.4035 8.69867 19.4026 7.9976 19.3288C7.31993 19.2579 6.93874 19.1275 6.64672 18.9244C6.35358 18.7212 6.12509 18.427 5.90329 17.8721C5.67257 17.299 5.47975 16.5333 5.20444 15.4264L4.72629 13.5098C4.32058 11.8806 4.03747 10.7364 3.96837 9.86331C3.90038 9.00944 4.05085 8.55615 4.36182 8.22456C4.6739 7.89394 5.15652 7.67256 6.14181 7.55085L6.33575 7.52881Z" fill="black"/>
</svg>
