<svg width="36" height="32" viewBox="0 0 36 32" fill="none" xmlns="http://www.w3.org/2000/svg">
<path d="M6.73438 4.92188L10.5281 8.75019" stroke="#6B7683" stroke-width="1.7"/>
<path d="M18.6572 0V5.46884" stroke="#6B7683" stroke-width="1.7"/>
<path d="M27.3291 8.75019L31.1228 4.92188" stroke="#6B7683" stroke-width="1.7"/>
<path d="M30.5801 17.5H35.9996" stroke="#6B7683" stroke-width="1.7"/>
<path d="M27.3291 25.1582L31.1228 28.9865" stroke="#6B7683" stroke-width="1.7"/>
<mask id="path-6-inside-1_201_773" fill="white">
<path fill-rule="evenodd" clip-rule="evenodd" d="M19.1494 26.2473C24.1178 26.1087 28.1032 22.0008 28.1032 16.9536C28.1032 11.8188 23.9783 7.65625 18.89 7.65625C13.8017 7.65625 9.67676 11.8188 9.67676 16.9536C9.67676 17.1451 9.68249 17.3352 9.6938 17.5239L18.3362 24.6099L19.1494 26.2473Z"/>
</mask>
<path d="M19.1494 26.2473L17.6269 27.0035L18.1103 27.977L19.1968 27.9467L19.1494 26.2473ZM9.6938 17.5239L7.99685 17.6256L8.04133 18.3673L8.61593 18.8385L9.6938 17.5239ZM18.3362 24.6099L19.8588 23.8538L19.6964 23.5268L19.4141 23.2953L18.3362 24.6099ZM26.4032 16.9536C26.4032 21.0918 23.139 24.4354 19.102 24.548L19.1968 27.9467C25.0966 27.7821 29.8032 22.9098 29.8032 16.9536H26.4032ZM18.89 9.35625C23.0249 9.35625 26.4032 12.7431 26.4032 16.9536H29.8032C29.8032 10.8945 24.9317 5.95625 18.89 5.95625V9.35625ZM11.3768 16.9536C11.3768 12.7431 14.7551 9.35625 18.89 9.35625V5.95625C12.8483 5.95625 7.97676 10.8945 7.97676 16.9536H11.3768ZM11.3908 17.4221C11.3815 17.2673 11.3768 17.1111 11.3768 16.9536H7.97676C7.97676 17.1791 7.98351 17.4031 7.99685 17.6256L11.3908 17.4221ZM19.4141 23.2953L10.7717 16.2092L8.61593 18.8385L17.2584 25.9245L19.4141 23.2953ZM20.672 25.4912L19.8588 23.8538L16.8137 25.3661L17.6269 27.0035L20.672 25.4912Z" fill="#6B7683" mask="url(#path-6-inside-1_201_773)"/>
<path d="M16.4954 30.6251C24.6199 28.9853 20.8262 20.7818 15.9535 20.7808C15.4115 16.4056 7.28219 12.5784 4.02303 19.6881C-1.93607 23.5164 1.85739 30.6262 7.28218 30.6251C9.99284 30.6251 14.3285 30.6252 16.4954 30.6251Z" fill="white" stroke="#6B7683" stroke-width="1.7"/>
</svg>
