<svg width="17" height="31" viewBox="0 0 17 31" fill="none" xmlns="http://www.w3.org/2000/svg">
<path d="M11.333 5H16.9997" stroke="#6B7683" stroke-width="1.5"/>
<path d="M11.333 11.5H16.9997" stroke="#6B7683" stroke-width="1.5"/>
<path d="M11.333 8.5H14.4239" stroke="#6B7683" stroke-width="1.5"/>
<path d="M11.333 15H14.4239" stroke="#6B7683" stroke-width="1.5"/>
<mask id="path-5-inside-1_201_787" fill="white">
<path fill-rule="evenodd" clip-rule="evenodd" d="M6.69697 0C4.7054 0 3.09091 1.61449 3.09091 3.60606V19.0218C1.23208 20.1769 0 22.1988 0 24.5C0 28.0899 2.99834 31 6.69697 31C10.3956 31 13.3939 28.0899 13.3939 24.5C13.3939 22.1988 12.1619 20.1769 10.303 19.0218V3.60606C10.303 1.61449 8.68854 0 6.69697 0Z"/>
</mask>
<path fill-rule="evenodd" clip-rule="evenodd" d="M6.69697 0C4.7054 0 3.09091 1.61449 3.09091 3.60606V19.0218C1.23208 20.1769 0 22.1988 0 24.5C0 28.0899 2.99834 31 6.69697 31C10.3956 31 13.3939 28.0899 13.3939 24.5C13.3939 22.1988 12.1619 20.1769 10.303 19.0218V3.60606C10.303 1.61449 8.68854 0 6.69697 0Z" fill="white"/>
<path d="M3.09091 19.0218L3.8826 20.2959L4.59091 19.8557V19.0218H3.09091ZM10.303 19.0218H8.80303V19.8557L9.51134 20.2959L10.303 19.0218ZM4.59091 3.60606C4.59091 2.44292 5.53382 1.5 6.69697 1.5V-1.5C3.87697 -1.5 1.59091 0.786063 1.59091 3.60606H4.59091ZM4.59091 19.0218V3.60606H1.59091V19.0218H4.59091ZM1.5 24.5C1.5 22.7523 2.43372 21.1962 3.8826 20.2959L2.29921 17.7478C0.0304409 19.1576 -1.5 21.6453 -1.5 24.5H1.5ZM6.69697 29.5C3.78424 29.5 1.5 27.2195 1.5 24.5H-1.5C-1.5 28.9602 2.21243 32.5 6.69697 32.5V29.5ZM11.8939 24.5C11.8939 27.2195 9.6097 29.5 6.69697 29.5V32.5C11.1815 32.5 14.8939 28.9602 14.8939 24.5H11.8939ZM9.51134 20.2959C10.9602 21.1962 11.8939 22.7523 11.8939 24.5H14.8939C14.8939 21.6453 13.3635 19.1576 11.0947 17.7478L9.51134 20.2959ZM8.80303 3.60606V19.0218H11.803V3.60606H8.80303ZM6.69697 1.5C7.86011 1.5 8.80303 2.44292 8.80303 3.60606H11.803C11.803 0.786063 9.51697 -1.5 6.69697 -1.5V1.5Z" fill="#6B7683" mask="url(#path-5-inside-1_201_787)"/>
<path d="M6.69727 12V21" stroke="#6B7683" stroke-width="1.5"/>
<path d="M9.55294 24C9.55294 25.4978 8.2955 26.75 6.69688 26.75C5.09826 26.75 3.84082 25.4978 3.84082 24C3.84082 22.5022 5.09826 21.25 6.69688 21.25C8.2955 21.25 9.55294 22.5022 9.55294 24Z" fill="white" stroke="#6B7683" stroke-width="1.5"/>
</svg>
