<svg width="34" height="26" viewBox="0 0 34 26" fill="none" xmlns="http://www.w3.org/2000/svg">
<path d="M22.385 21.4022L3.90387 7.82953C3.59507 7.68004 1.15149 4.24958 5.43123 3.8025C6.03904 0.520865 9.24649 1.86317 11.2352 2.90756C22.6905 -0.373783 35.8258 8.42615 32.4656 10.5143C30.9383 11.26 30.4801 8.50073 23.4541 6.78547C16.7338 5.14484 15.5119 5.5923 15.0536 5.74142C16.2755 6.63633 21.4654 8.87325 26.3562 14.243C27.8836 17.0769 25.287 17.6735 24.676 17.6735C25.287 18.5684 25.7452 21.5514 22.385 21.4022Z" stroke="#6B7683" stroke-width="1.2375"/>
<path d="M7.33594 5.27441L22.4971 16.2956" stroke="#6B7683" stroke-width="1.2375"/>
<path d="M3.66406 24.3234L29.333 1" stroke="#6B7683" stroke-width="1.2375"/>
<path d="M1.28355 13.2473C1.05436 13.0773 1.00751 12.7544 1.17893 12.5262L4.29257 8.38149L5.12258 8.99731L2.00894 13.1421C1.83752 13.3702 1.51275 13.4174 1.28355 13.2473Z" stroke="#6B7683" stroke-width="1.13551"/>
<path d="M4.26207 15.5745C4.03287 15.4044 3.98603 15.0816 4.15744 14.8534L7.27109 10.7086L8.1011 11.3245L4.98745 15.4692C4.81603 15.6974 4.49127 15.7445 4.26207 15.5745Z" stroke="#6B7683" stroke-width="1.13551"/>
<path d="M7.2943 17.8254C7.0651 17.6554 7.01825 17.3326 7.18967 17.1044L10.3033 12.9596L11.1333 13.5754L8.01968 17.7202C7.84826 17.9484 7.5235 17.9955 7.2943 17.8254Z" stroke="#6B7683" stroke-width="1.13551"/>
<path d="M10.3314 20.0764C10.1022 19.9064 10.0554 19.5835 10.2268 19.3553L13.3404 15.2106L14.1704 15.8264L11.0568 19.9712C10.8854 20.1993 10.5606 20.2465 10.3314 20.0764Z" stroke="#6B7683" stroke-width="1.13551"/>
<path d="M13.3588 22.3274C13.1296 22.1573 13.0827 21.8345 13.2541 21.6063L16.3678 17.4616L17.1978 18.0774L14.0841 22.2221C13.9127 22.4503 13.588 22.4974 13.3588 22.3274Z" stroke="#6B7683" stroke-width="1.13551"/>
<path d="M16.3988 24.5784C16.1696 24.4083 16.1227 24.0855 16.2942 23.8573L19.4078 19.7125L20.2378 20.3284L17.1242 24.4731C16.9528 24.7013 16.628 24.7484 16.3988 24.5784Z" stroke="#6B7683" stroke-width="1.13551"/>
</svg>
