<svg width="25" height="31" viewBox="0 0 25 31" fill="none" xmlns="http://www.w3.org/2000/svg">
<path d="M18.3698 27.7336V6.59221C18.3697 5.36467 17.5477 3.31875 14.7808 3.31875C11.8563 3.31875 11.0588 4.93285 11.0588 6.59221C11.0588 7.95621 10.9702 12.8664 11.0588 15.1852H8.66602V6.59221C8.71038 4.59174 9.98482 1.00002 14.7808 1C20.6295 0.999981 20.4712 4.80552 20.6295 6.59221C20.7624 8.09259 20.7181 21.2775 20.6295 27.7336" stroke="#6B7683" stroke-width="1.5"/>
<path d="M13.028 22.0035C13.028 20.3077 13.3923 15.872 10.9637 15.4805C8.89843 15.4804 8.65599 15.4805 8.65599 15.4805C8.65599 15.4805 3.19123 17.1012 3.19056 22.5251C3.1899 27.8739 3.19207 28.2652 3.19056 28.7871C3.18904 29.3089 4.1623 29.9612 4.1623 29.9612H10.4774" stroke="#6B7683" stroke-width="1.5"/>
<path d="M3.19043 24.3916V24.3916C1.98069 24.3916 1 25.3723 1 26.582V26.6568C1 27.8665 1.98069 28.8472 3.19043 28.8472V28.8472" stroke="#6B7683" stroke-width="1.5"/>
<path d="M24 29.9612H15.2383C15.2383 29.4662 16.2541 27.7335 19.5557 27.7334C22.8572 27.7333 23.9577 29.3836 24 29.9612Z" stroke="#6B7683" stroke-width="1.5"/>
<path d="M15.0181 25.4873C15.0181 28.1296 12.9153 30.2499 10.3479 30.2499C7.78056 30.2499 5.67773 28.1296 5.67773 25.4873C5.67773 22.8449 7.78056 20.7246 10.3479 20.7246C12.9153 20.7246 15.0181 22.8449 15.0181 25.4873Z" fill="white" stroke="#6B7683" stroke-width="1.5"/>
<path d="M12.2964 25.9478C12.2964 27.0836 11.3944 27.9826 10.3084 27.9826C9.2223 27.9826 8.32031 27.0836 8.32031 25.9478C8.32031 24.8121 9.2223 23.9131 10.3084 23.9131C11.3944 23.9131 12.2964 24.8121 12.2964 25.9478Z" stroke="#6B7683" stroke-width="1.5"/>
</svg>
