<svg width="70" height="80" viewBox="0 0 70 80" fill="none" xmlns="http://www.w3.org/2000/svg">
<path d="M32.1675 67.5787C31.6231 67.4862 31.1067 67.8525 31.0141 68.397C30.9216 68.9415 31.288 69.4579 31.8325 69.5504L32.1675 67.5787ZM53.0072 54.8802C52.6897 57.5104 51.2708 61.3375 48.0678 64.17C44.9054 66.9665 39.8931 68.8917 32.1675 67.5787L31.8325 69.5504C40.0697 70.9504 45.7163 68.9192 49.3927 65.6682C53.0284 62.4531 54.6281 58.1415 54.9928 55.1198L53.0072 54.8802Z" fill="#6B7683"/>
<mask id="path-2-inside-1_201_1230" fill="white">
<path fill-rule="evenodd" clip-rule="evenodd" d="M48.6071 57.0986C48.2689 57.0986 48 56.8206 48 56.4823V30.715C48 30.3767 48.2689 30.0986 48.6071 30.0986C57.6607 30.0986 65 36.1428 65 43.5986C65 51.0545 57.6607 57.0986 48.6071 57.0986Z"/>
</mask>
<path d="M50 56.4823V30.715H46V56.4823H50ZM48.6071 32.0986C56.9369 32.0986 63 37.5931 63 43.5986H67C67 34.6925 58.3844 28.0986 48.6071 28.0986V32.0986ZM63 43.5986C63 49.6042 56.9369 55.0986 48.6071 55.0986V59.0986C58.3844 59.0986 67 52.5048 67 43.5986H63ZM50 30.715C50 31.4419 49.4123 32.0986 48.6071 32.0986V28.0986C47.1254 28.0986 46 29.3114 46 30.715H50ZM46 56.4823C46 57.8858 47.1254 59.0986 48.6071 59.0986V55.0986C49.4123 55.0986 50 55.7553 50 56.4823H46Z" fill="#6B7683" mask="url(#path-2-inside-1_201_1230)"/>
<mask id="path-4-inside-2_201_1230" fill="white">
<path fill-rule="evenodd" clip-rule="evenodd" d="M21.3929 57.0986C21.7311 57.0986 22 56.8206 22 56.4823V30.715C22 30.3767 21.7311 30.0986 21.3929 30.0986C12.3393 30.0986 5 36.1428 5 43.5986C5 51.0545 12.3393 57.0986 21.3929 57.0986Z"/>
</mask>
<path d="M20 56.4823V30.715H24V56.4823H20ZM21.3929 32.0986C13.0631 32.0986 7 37.5931 7 43.5986H3C3 34.6925 11.6156 28.0986 21.3929 28.0986V32.0986ZM7 43.5986C7 49.6042 13.0631 55.0986 21.3929 55.0986V59.0986C11.6156 59.0986 3 52.5048 3 43.5986H7ZM20 30.715C20 31.4419 20.5877 32.0986 21.3929 32.0986V28.0986C22.8746 28.0986 24 29.3114 24 30.715H20ZM24 56.4823C24 57.8858 22.8746 59.0986 21.3929 59.0986V55.0986C20.5877 55.0986 20 55.7553 20 56.4823H24Z" fill="#6B7683" mask="url(#path-4-inside-2_201_1230)"/>
<path d="M14 32C14.3333 25.5 19 11 35 11C51 11 54.6667 24.5 55.5 32" stroke="#6B7683" stroke-width="2"/>
</svg>
