<svg width="80" height="80" viewBox="0 0 80 80" fill="none" xmlns="http://www.w3.org/2000/svg">
<path d="M15.3846 47.077V66.8077C15.3846 67.3891 15.6156 67.9468 16.0267 68.3579C16.4379 68.769 16.9955 69 17.5769 69H61.4231C62.0045 69 62.5621 68.769 62.9733 68.3579C63.3844 67.9468 63.6154 67.3891 63.6154 66.8077V47.077M11 25.1539V33.9231C11 34.5046 11.231 35.0622 11.6421 35.4733C12.0532 35.8845 12.6109 36.1154 13.1923 36.1154H65.8077C66.3891 36.1154 66.9468 35.8845 67.3579 35.4733C67.769 35.0622 68 34.5046 68 33.9231V25.1539M11 25.1539L16.3492 14.4116C16.7169 13.6819 17.2812 13.0694 17.9785 12.6433C18.6758 12.2172 19.4782 11.9944 20.2954 12.0001H58.7046C59.5218 11.9944 60.3242 12.2172 61.0215 12.6433C61.7188 13.0694 62.2831 13.6819 62.6508 14.4116L68 25.1539M11 25.1539H68M43.8846 47.077V69M15.3846 53.6539H43.8846" stroke="#6B7683" stroke-width="2" stroke-linecap="round" stroke-linejoin="round"/>
</svg>
