<svg width="63" height="56" viewBox="0 0 63 56" fill="none" xmlns="http://www.w3.org/2000/svg">
<path d="M4.7601 0.999023C4.7601 0.999023 8.78676 7.68108 18.614 12.4042C27.8861 16.8662 45.6469 28.1517 29.4532 48.4917C29.4532 48.4917 -11.3356 62.7265 4.7601 0.999023Z" fill="#AAC4A6" stroke="black" stroke-width="1.8" stroke-linejoin="bevel"/>
<path d="M9.93994 18.3242C9.93994 18.3242 20.3004 43.8227 37.332 54.9994" stroke="black" stroke-width="1.8" stroke-linejoin="bevel"/>
<path d="M38.6275 50.4291C33.4364 22.8737 49.3144 33.1253 60.1537 19.1953C60.1537 19.1953 68.1417 53.8354 38.6275 50.4291Z" fill="#AAC4A6" stroke="black" stroke-width="1.8" stroke-linejoin="bevel"/>
<path d="M54.3425 30.9932C54.3425 30.9932 47.9216 42.529 39.2915 49.5593" stroke="black" stroke-width="1.8" stroke-linejoin="bevel"/>
<path d="M23.0106 26.9443C23.0106 26.9443 21.3782 35.6724 22.0421 39.4596" stroke="black" stroke-width="1.8" stroke-linejoin="bevel"/>
<path d="M7.81787 29.958C7.81787 29.958 14.5652 33.2337 18.026 34.1261" stroke="black" stroke-width="1.8" stroke-linejoin="bevel"/>
</svg>
