<svg width="78" height="73" viewBox="0 0 78 73" fill="none" xmlns="http://www.w3.org/2000/svg">
<path d="M60.5365 48.5637L26.4529 48.5544C25.9523 48.646 19.988 46.7044 24.6817 42.448C22.4806 38.0264 27.493 36.8261 30.7898 36.3335C41.4955 22.4681 64.9656 21.4703 62.8283 26.8725C61.6756 29.0868 58.6716 26.2128 48.7836 30.2952C39.3258 34.2 38.2707 35.7946 37.8583 36.3705C40.1095 36.3682 48.2778 34.5031 58.882 36.6144C63.2245 38.646 60.6667 41.6142 59.9397 42.1462C61.4642 42.6757 64.6675 45.8151 60.5365 48.5637Z" fill="#FFD4BB" stroke="black" stroke-width="1.8"/>
<path d="M28.2583 42.5518L56.1115 42.4251" stroke="black" stroke-width="1.8"/>
<path d="M27.3141 56.5571L27.3257 48.9269L28.9207 48.9349L28.9091 56.5651C28.9085 56.992 28.5511 57.3359 28.1104 57.3336C27.6697 57.3314 27.3134 56.984 27.3141 56.5571Z" fill="#FFD4BB" stroke="black" stroke-width="1.68557"/>
<path d="M32.9317 56.6977L32.9433 49.0675L34.5384 49.0756L34.5268 56.7057C34.5261 57.1326 34.1688 57.4765 33.7281 57.4743C33.2874 57.472 32.9311 57.1246 32.9317 56.6977Z" fill="#FFD4BB" stroke="black" stroke-width="1.68557"/>
<path d="M38.5406 56.7016L38.5522 49.0714L40.1473 49.0795L40.1357 56.7096C40.135 57.1365 39.7777 57.4804 39.337 57.4782C38.8963 57.4759 38.54 57.1285 38.5406 56.7016Z" fill="#FFD4BB" stroke="black" stroke-width="1.68557"/>
<path d="M44.1583 56.7016L44.1699 49.0714L45.765 49.0795L45.7534 56.7096C45.7527 57.1365 45.3953 57.4804 44.9547 57.4782C44.514 57.4759 44.1577 57.1285 44.1583 56.7016Z" fill="#FFD4BB" stroke="black" stroke-width="1.68557"/>
<path d="M49.7643 56.7075L49.7759 49.0773L51.3709 49.0853L51.3593 56.7155C51.3587 57.1424 51.0013 57.4862 50.5606 57.484C50.1199 57.4818 49.7636 57.1343 49.7643 56.7075Z" fill="#FFD4BB" stroke="black" stroke-width="1.68557"/>
<path d="M55.3854 56.7036L55.397 49.0734L56.992 49.0814L56.9804 56.7116C56.9798 57.1385 56.6224 57.4823 56.1817 57.4801C55.741 57.4779 55.3847 57.1304 55.3854 56.7036Z" fill="#FFD4BB" stroke="black" stroke-width="1.68557"/>
<path d="M17.2161 19.9188C17.2161 17.0516 18.3551 14.3019 20.3825 12.2744C22.4099 10.247 25.1597 9.10806 28.0269 9.10806C29.5195 9.10806 30.7295 7.89802 30.7295 6.40537V5.05403C30.7295 2.81505 28.9145 1 26.6755 1H5.05403C2.81505 1 1 2.81505 1 5.05403C1 7.29301 3.04639 9.03217 4.68455 10.5584C4.73113 10.6018 4.77701 10.6461 4.82217 10.6913C5.83588 11.705 6.40537 13.0798 6.40537 14.5134V30.7295C6.40537 32.1631 5.83588 33.538 4.82217 34.5517C4.78949 34.5844 4.75643 34.6166 4.723 34.6484C3.07868 36.2106 1 37.9736 1 40.2417V59.055C1 61.3231 2.83867 63.1618 5.10678 63.1618H26.6228C28.8909 63.1618 30.7295 61.3231 30.7295 59.055V44.7C30.7295 44.4165 30.5808 44.1537 30.3376 44.0078C21.2701 37.4863 17.2161 30.7295 17.2161 19.9188ZM17.2161 19.9188H6.40537H17.2161ZM25.3242 9.44859V13.1621C25.3242 14.9541 26.036 16.6727 27.3032 17.9398C28.5703 19.2069 30.2889 19.9188 32.0809 19.9188" fill="white"/>
<path d="M17.2161 19.9188C17.2161 17.0516 18.3551 14.3019 20.3825 12.2744C22.4099 10.247 25.1597 9.10806 28.0269 9.10806C29.5195 9.10806 30.7295 7.89802 30.7295 6.40537V5.05403C30.7295 2.81505 28.9145 1 26.6755 1H5.05403C2.81505 1 1 2.81505 1 5.05403C1 7.29301 3.04639 9.03217 4.68455 10.5584C4.73113 10.6018 4.77701 10.6461 4.82217 10.6913C5.83588 11.705 6.40537 13.0798 6.40537 14.5134V30.7295C6.40537 32.1631 5.83588 33.538 4.82217 34.5517C4.78949 34.5844 4.75643 34.6166 4.723 34.6484C3.07868 36.2106 1 37.9736 1 40.2417V59.055C1 61.3231 2.83867 63.1618 5.10678 63.1618H26.6228C28.8909 63.1618 30.7295 61.3231 30.7295 59.055V44.7C30.7295 44.4165 30.5808 44.1537 30.3376 44.0078C21.2701 37.4863 17.2161 30.7295 17.2161 19.9188ZM17.2161 19.9188H6.40537M25.3242 9.44859V13.1621C25.3242 14.9541 26.036 16.6727 27.3032 17.9398C28.5703 19.2069 30.2889 19.9188 32.0809 19.9188" stroke="black" stroke-width="1.8"/>
<path d="M4.82217 34.5519C5.83588 33.5382 6.40537 32.1633 6.40537 30.7297V19.9189H17.2161C17.2161 30.7297 21.2701 37.4864 30.3376 44.008C30.5808 44.1539 30.7295 44.4166 30.7295 44.7001V59.0551C30.7295 61.3232 28.8909 63.1619 26.6228 63.1619H5.10678C2.83867 63.1619 1 61.3232 1 59.0551V40.2418C1 37.9737 3.07868 36.2108 4.723 34.6485C4.75643 34.6168 4.78949 34.5845 4.82217 34.5519Z" fill="#A7EEFF" stroke="black" stroke-width="1.8"/>
</svg>
