<svg width="77" height="74" viewBox="0 0 77 74" fill="none" xmlns="http://www.w3.org/2000/svg">
<path d="M60.4055 48.4793L26.3498 48.639C25.8482 48.7329 19.9185 46.8243 24.6735 42.5525C22.5418 38.1498 27.5685 36.9269 30.8701 36.4188C41.7791 22.5258 65.2454 21.4134 63.0273 26.8164C61.8416 29.0324 58.884 26.1785 48.9416 30.3025C39.4318 34.247 38.3531 35.8439 37.9322 36.4208C40.1817 36.4073 48.3719 34.5051 58.9351 36.56C63.243 38.5664 60.6419 41.5419 59.9074 42.0765C61.4225 42.5975 64.5752 45.7152 60.4055 48.4793Z" stroke="#6B7683" stroke-width="1.8"/>
<path d="M28.2578 42.6211L56.111 42.354" stroke="#6B7683" stroke-width="1.8"/>
<path d="M27.3044 56.5161L27.4147 48.9591L28.9403 48.9555L28.8301 56.5124C28.8236 56.9501 28.4765 57.3053 28.0552 57.3063C27.6341 57.3071 27.2982 56.9536 27.3044 56.5161Z" stroke="#6B7683" stroke-width="1.67797"/>
<path d="M32.9221 56.6567L33.0323 49.0997L34.558 49.0961L34.4478 56.6531C34.4413 57.0907 34.0942 57.4459 33.6729 57.4469C33.2517 57.4478 32.9159 57.0943 32.9221 56.6567Z" stroke="#6B7683" stroke-width="1.67797"/>
<path d="M38.531 56.6606L38.6412 49.1036L40.1669 49.1L40.0567 56.657C40.0502 57.0946 39.7031 57.4498 39.2818 57.4508C38.8606 57.4517 38.5247 57.0982 38.531 56.6606Z" stroke="#6B7683" stroke-width="1.67797"/>
<path d="M44.1487 56.6606L44.2589 49.1036L45.7846 49.1L45.6743 56.657C45.6678 57.0946 45.3208 57.4498 44.8995 57.4508C44.4783 57.4517 44.1424 57.0982 44.1487 56.6606Z" stroke="#6B7683" stroke-width="1.67797"/>
<path d="M49.7551 56.6674L49.8653 49.1105L51.391 49.1068L51.2808 56.6638C51.2743 57.1015 50.9272 57.4566 50.5059 57.4576C50.0847 57.4585 49.7489 57.105 49.7551 56.6674Z" stroke="#6B7683" stroke-width="1.67797"/>
<path d="M55.3757 56.6625L55.4859 49.1056L57.0116 49.102L56.9014 56.6589C56.8949 57.0966 56.5478 57.4517 56.1265 57.4527C55.7053 57.4536 55.3695 57.1001 55.3757 56.6625Z" stroke="#6B7683" stroke-width="1.67797"/>
<path d="M17.2161 19.9188C17.2161 17.0516 18.3551 14.3019 20.3825 12.2744C22.4099 10.247 25.1597 9.10806 28.0269 9.10806C29.5195 9.10806 30.7295 7.89802 30.7295 6.40537V5.05403C30.7295 2.81505 28.9145 1 26.6755 1H5.05403C2.81505 1 1 2.81505 1 5.05403C1 7.29301 3.04639 9.03217 4.68455 10.5584C4.73113 10.6018 4.77701 10.6461 4.82217 10.6913C5.83588 11.705 6.40537 13.0798 6.40537 14.5134V30.7295C6.40537 32.1631 5.83588 33.538 4.82217 34.5517C4.78949 34.5844 4.75643 34.6166 4.723 34.6484C3.07868 36.2106 1 37.9736 1 40.2417V59.055C1 61.3231 2.83867 63.1618 5.10678 63.1618H26.6228C28.8909 63.1618 30.7295 61.3231 30.7295 59.055V44.7C30.7295 44.4165 30.5808 44.1537 30.3377 44.0078C21.2701 37.4863 17.2161 30.7295 17.2161 19.9188ZM17.2161 19.9188H6.40537H17.2161ZM25.3242 9.4486V13.1621C25.3242 14.9541 26.036 16.6727 27.3032 17.9398C28.5703 19.2069 30.2889 19.9188 32.0809 19.9188" fill="white"/>
<path d="M17.2161 19.9188C17.2161 17.0516 18.3551 14.3019 20.3825 12.2744C22.4099 10.247 25.1597 9.10806 28.0269 9.10806V9.10806C29.5195 9.10806 30.7295 7.89802 30.7295 6.40537V5.05403C30.7295 2.81505 28.9145 1 26.6755 1H5.05403C2.81505 1 1 2.81505 1 5.05403V5.05403C1 7.29301 3.04639 9.03217 4.68455 10.5584C4.73113 10.6018 4.77701 10.6461 4.82217 10.6913C5.83588 11.705 6.40537 13.0798 6.40537 14.5134V30.7295C6.40537 32.1631 5.83588 33.538 4.82217 34.5517C4.78949 34.5844 4.75643 34.6166 4.723 34.6484C3.07868 36.2106 1 37.9736 1 40.2417V59.055C1 61.3231 2.83867 63.1618 5.10678 63.1618H26.6228C28.8909 63.1618 30.7295 61.3231 30.7295 59.055V44.7C30.7295 44.4165 30.5808 44.1537 30.3377 44.0078V44.0078C21.2701 37.4863 17.2161 30.7295 17.2161 19.9188ZM17.2161 19.9188H6.40537M25.3242 9.44859V13.1621C25.3242 14.9541 26.036 16.6727 27.3032 17.9398C28.5703 19.2069 30.2889 19.9188 32.0809 19.9188" stroke="#6B7683" stroke-width="1.8"/>
</svg>
