<svg width="26" height="26" viewBox="0 0 26 26" fill="none" xmlns="http://www.w3.org/2000/svg">
<g clip-path="url(#clip0_361_4868)">
<path d="M3.08169 11.0414C2.76826 10.8713 2.7877 10.415 3.11448 10.2721L10.8767 6.87779C12.1879 6.30439 13.0353 5.00907 13.0354 3.57792C13.0354 3.37606 13.2454 3.24277 13.4281 3.32865L23.6419 8.12985C23.7922 8.2005 23.8882 8.35163 23.8882 8.51771L23.8882 9.21285C23.8882 10.4266 23.2045 11.5368 22.1206 12.0831L13.4425 16.4571C13.3171 16.5204 13.1686 16.5181 13.0451 16.4511L3.08169 11.0414Z" stroke="black"/>
<path d="M3.03114 14.2863L12.8197 19.6213C13.0864 19.7666 13.4074 19.7724 13.6791 19.6365L23.4577 14.7496" stroke="black" stroke-linecap="round"/>
<path d="M3.03114 18.0001L12.8197 23.3351C13.0864 23.4805 13.4074 23.4862 13.6791 23.3504L23.4577 18.4634" stroke="black" stroke-linecap="round"/>
</g>
<defs>
<clipPath id="clip0_361_4868">
<rect width="26" height="26" fill="white"/>
</clipPath>
</defs>
</svg>
