<svg width="126" height="19" viewBox="0 0 126 19" fill="none" xmlns="http://www.w3.org/2000/svg">
<g clip-path="url(#clip0_1157_5927)">
<path d="M22.3633 0.5H19.36V15.73H22.3633V0.5Z" fill="white"/>
<path d="M15.91 1.35222H12.9066V16.5819H15.91V1.35222Z" fill="white"/>
<path d="M9.45667 2.30363H6.45332V17.5362H9.45667V2.30363Z" fill="white"/>
<path d="M3.00334 3.26562H0L1.14441e-05 18.5H3.00335L3.00334 3.26562Z" fill="white"/>
<path d="M101.685 8.61402L96.849 3.2374H94.022V15.6861H96.9737V7.74361L101.389 12.4493H101.934L106.273 7.74361V15.6861H109.225V3.2374H106.398L101.685 8.61402Z" fill="white"/>
<path d="M123.287 3.2374L115.971 11.3286V3.2374H113.02V15.6861H115.724L123.04 7.59491V15.6861H125.991V3.2374H123.287Z" fill="white"/>
<path d="M78.1233 7.79257C78.1233 9.77458 79.2072 11.3359 80.8709 11.9905L77.7512 15.6861H81.3641L84.202 12.3242H87.2729V15.6861H90.2246V3.2374H82.7099C79.9081 3.2374 78.1233 5.15413 78.1233 7.79257ZM87.2747 5.97921V9.66033H83.2572C81.9168 9.66033 81.1979 8.91323 81.1979 7.81796C81.1979 6.72269 81.9421 5.97558 83.2572 5.97558L87.2747 5.97921Z" fill="white"/>
<path d="M64.407 5.72715C64.2263 10.0085 63.3231 12.7721 61.5546 12.7721H61.1121V15.7605L61.5835 15.7859C65.1295 15.9835 67.0895 12.8718 67.4111 6.07532H72.0752V15.6861H75.0215V3.2374H64.5063L64.407 5.72715Z" fill="white"/>
<path d="M53.2958 3.06348C49.3036 3.06348 46.4314 5.82704 46.4314 9.46102C46.4314 13.2201 49.5565 15.8858 53.2958 15.8858C57.1905 15.8858 60.2162 13.0714 60.2162 9.46102C60.2162 5.85061 57.1905 3.06348 53.2958 3.06348ZM53.2958 12.8973C51.0396 12.8973 49.5023 11.4285 49.5023 9.46102C49.5023 7.44456 51.0414 6.01563 53.2958 6.01563C55.5502 6.01563 57.1399 7.50984 57.1399 9.46102C57.1399 11.4122 55.5285 12.8973 53.2958 12.8973Z" fill="white"/>
<path d="M43.3009 3.26089H32.8833L32.7839 5.75063C32.6358 9.33747 31.7001 12.7484 29.9316 12.7974L29.1133 12.8227V18.4999L32.0903 18.4939V15.6879H42.432V18.4939H45.4343V12.7974H43.3009V3.26089ZM40.3492 12.7974H34.0502C35.116 11.1798 35.6869 8.83879 35.7862 6.10061H40.3492V12.7974Z" fill="white"/>
</g>
<defs>
<clipPath id="clip0_1157_5927">
<rect width="126" height="18" fill="white" transform="translate(0 0.5)"/>
</clipPath>
</defs>
</svg>
