<svg width="26" height="15" viewBox="0 0 26 15" fill="none" xmlns="http://www.w3.org/2000/svg">
<g clip-path="url(#clip0_2209_2161)">
<path d="M-34 18.4215C-34 15.6601 -31.7614 13.4215 -29 13.4215H0.656792C2.35179 13.4215 3.93137 12.5628 4.85303 11.1403L11.0403 1.59066C11.8285 0.373992 13.609 0.373993 14.3972 1.59066L20.5845 11.1403C21.5061 12.5628 23.0857 13.4215 24.7807 13.4215H40.75H115.5H260C262.761 13.4215 265 15.6601 265 18.4215V97C265 99.7614 262.761 102 260 102H-29C-31.7614 102 -34 99.7614 -34 97V18.4215Z" fill="white"/>
<path d="M-33.5 18.4215C-33.5 15.9363 -31.4853 13.9215 -29 13.9215H0.656792C2.52129 13.9215 4.25883 12.9769 5.27265 11.4122L11.4599 1.86253C12.0511 0.950034 13.3864 0.950034 13.9776 1.86253L20.1648 11.4122C21.1787 12.9769 22.9162 13.9215 24.7807 13.9215H40.75H115.5H260C262.485 13.9215 264.5 15.9363 264.5 18.4215V97C264.5 99.4853 262.485 101.5 260 101.5H-29C-31.4853 101.5 -33.5 99.4853 -33.5 97V18.4215Z" stroke="#D9D9D9" stroke-opacity="0.2"/>
</g>
<defs>
<clipPath id="clip0_2209_2161">
<rect width="26" height="15" fill="white"/>
</clipPath>
</defs>
</svg>
