<svg width="20" height="12" viewBox="0 0 20 12" fill="none" xmlns="http://www.w3.org/2000/svg">
<path d="M2.47451 11.5494V1.35H17.5828V11.5494H2.47451Z" stroke="#01ABD3" stroke-width="0.7" stroke-miterlimit="10" stroke-linecap="round" stroke-linejoin="round"/>
<mask id="path-2-inside-1_344_17285" fill="white">
<path d="M2.09204 5.9184C2.09204 5.9184 5.5 6.85254 7 6.35254C8.69488 5.71171 8.91992 5.4668 9.41992 4.4668C11.9199 4.4668 12.4199 3.4668 12.858 2.85195C13.2169 2.34812 13.708 1.12012 13.708 1.12012"/>
</mask>
<path d="M2.27709 5.24331C1.90424 5.14111 1.51914 5.36051 1.41694 5.73336C1.31474 6.1062 1.53415 6.4913 1.90699 6.5935L2.27709 5.24331ZM7 6.35254L7.22136 7.01662C7.23015 7.01369 7.23889 7.01058 7.24756 7.0073L7 6.35254ZM9.41992 4.4668V3.7668C9.15478 3.7668 8.9124 3.9166 8.79382 4.15375L9.41992 4.4668ZM12.858 2.85195L12.2879 2.44578V2.44578L12.858 2.85195ZM14.358 1.38006C14.5016 1.0211 14.3269 0.613733 13.968 0.470171C13.609 0.326609 13.2017 0.50122 13.0581 0.860176L14.358 1.38006ZM2.09204 5.9184C1.90699 6.5935 1.90709 6.59353 1.9072 6.59356C1.90725 6.59357 1.90737 6.59361 1.90748 6.59364C1.90769 6.59369 1.90796 6.59377 1.90828 6.59385C1.90891 6.59403 1.90975 6.59426 1.9108 6.59454C1.91289 6.59511 1.9158 6.5959 1.91951 6.5969C1.92692 6.5989 1.93753 6.60175 1.95117 6.60536C1.97843 6.6126 2.01784 6.62293 2.06807 6.63577C2.16849 6.66143 2.31242 6.69719 2.48939 6.73835C2.8426 6.8205 3.33102 6.92502 3.86987 7.01368C4.40668 7.10201 5.00584 7.17667 5.57755 7.19527C6.13605 7.21345 6.72863 7.18086 7.22136 7.01662L6.77864 5.68846C6.52137 5.77422 6.12545 5.81236 5.62309 5.79601C5.13393 5.78009 4.59986 5.71497 4.09717 5.63226C3.59653 5.54989 3.13921 5.45212 2.80655 5.37475C2.64059 5.33615 2.50656 5.30283 2.41475 5.27937C2.36886 5.26764 2.33358 5.25839 2.31019 5.25218C2.2985 5.24908 2.28979 5.24674 2.28422 5.24524C2.28143 5.24449 2.27943 5.24394 2.27823 5.24362C2.27764 5.24346 2.27724 5.24335 2.27705 5.2433C2.27695 5.24327 2.27691 5.24326 2.27691 5.24326C2.27692 5.24326 2.27696 5.24327 2.27696 5.24327C2.27702 5.24329 2.27709 5.24331 2.09204 5.9184ZM7.24756 7.0073C8.08758 6.68969 8.66829 6.43497 9.09717 6.08949C9.55532 5.72042 9.79242 5.28705 10.046 4.77985L8.79382 4.15375C8.54742 4.64655 8.422 4.83563 8.21891 4.99923C7.98655 5.18641 7.60729 5.37456 6.75244 5.69778L7.24756 7.0073ZM9.41992 5.1668C10.7624 5.1668 11.6597 4.89785 12.2994 4.47309C12.9256 4.05727 13.243 3.51789 13.4281 3.25812L12.2879 2.44578C12.0349 2.80085 11.8832 3.0689 11.525 3.30679C11.1802 3.53574 10.5775 3.7668 9.41992 3.7668V5.1668ZM13.4281 3.25812C13.6521 2.94361 13.8895 2.45168 14.0552 2.08601C14.1424 1.8936 14.2177 1.71816 14.2711 1.5909C14.2979 1.52714 14.3193 1.47514 14.3342 1.43877C14.3416 1.42058 14.3474 1.40627 14.3514 1.39633C14.3535 1.39136 14.355 1.38748 14.3561 1.38475C14.3567 1.38338 14.3571 1.3823 14.3574 1.38152C14.3576 1.38113 14.3577 1.38081 14.3578 1.38057C14.3578 1.38044 14.3579 1.38034 14.3579 1.38026C14.3579 1.38021 14.358 1.38016 14.358 1.38014C14.358 1.3801 14.358 1.38006 13.708 1.12012C13.0581 0.860176 13.0581 0.860145 13.0581 0.860119C13.0581 0.860117 13.0581 0.860096 13.0581 0.860091C13.0581 0.860081 13.0581 0.86009 13.0581 0.860117C13.0581 0.860171 13.0581 0.860299 13.058 0.8605C13.0578 0.8609 13.0575 0.861591 13.0571 0.862564C13.0564 0.86451 13.0551 0.867586 13.0534 0.871732C13.0501 0.880026 13.045 0.892594 13.0383 0.908963C13.0249 0.941716 13.0052 0.989596 12.9803 1.04883C12.9304 1.16757 12.8605 1.33061 12.78 1.50818C12.6104 1.88247 12.4227 2.25645 12.2879 2.44578L13.4281 3.25812Z" fill="#01ABD3" mask="url(#path-2-inside-1_344_17285)"/>
<mask id="path-4-inside-2_344_17285" fill="white">
<path d="M7.00312 11.8098C7.00312 11.8098 6.7444 10.7136 7.33576 10.311C7.92712 9.90854 9 9.85254 10 9.35254C11.5 8.85254 10.9473 7.52528 12.2514 6.64613C13.5556 5.76697 17.8799 7.00097 17.8799 7.00097"/>
</mask>
<path d="M6.32184 11.9706C6.41063 12.3469 6.78764 12.5799 7.1639 12.4911C7.54016 12.4023 7.7732 12.0253 7.68441 11.6491L6.32184 11.9706ZM10 9.35254L9.77864 8.68846C9.74722 8.69894 9.71658 8.71163 9.68695 8.72644L10 9.35254ZM17.6878 7.6741C18.0596 7.78018 18.447 7.56481 18.5531 7.19305C18.6591 6.8213 18.4438 6.43393 18.072 6.32784L17.6878 7.6741ZM7.00312 11.8098C7.68441 11.6491 7.68445 11.6493 7.6845 11.6495C7.68451 11.6495 7.68455 11.6497 7.68458 11.6498C7.68464 11.65 7.68469 11.6503 7.68473 11.6505C7.68483 11.6509 7.6849 11.6512 7.68497 11.6515C7.6851 11.652 7.68517 11.6523 7.68518 11.6524C7.68522 11.6526 7.68503 11.6518 7.68467 11.6501C7.68393 11.6466 7.68248 11.6397 7.68055 11.6297C7.67667 11.6095 7.67099 11.5775 7.6654 11.5368C7.65392 11.4534 7.64418 11.3441 7.6474 11.2313C7.65524 10.9561 7.72815 10.8907 7.72963 10.8897L6.94189 9.73237C6.35201 10.1339 6.25861 10.8179 6.24796 11.1915C6.24194 11.4031 6.25992 11.593 6.27848 11.7277C6.28789 11.7961 6.29781 11.8529 6.30577 11.8942C6.30976 11.915 6.31328 11.932 6.31605 11.9448C6.31744 11.9513 6.31863 11.9567 6.31961 11.961C6.3201 11.9631 6.32053 11.965 6.3209 11.9666C6.32109 11.9674 6.32126 11.9682 6.32142 11.9688C6.32149 11.9692 6.32157 11.9695 6.32164 11.9698C6.32167 11.9699 6.32172 11.9701 6.32174 11.9702C6.32179 11.9704 6.32184 11.9706 7.00312 11.8098ZM7.72963 10.8897C7.90777 10.7685 8.19451 10.6806 8.69803 10.5439C9.15537 10.4197 9.74081 10.2648 10.313 9.97864L9.68695 8.72644C9.25919 8.94032 8.80819 9.06333 8.33125 9.1928C7.90049 9.30974 7.35511 9.45111 6.94189 9.73237L7.72963 10.8897ZM10.2214 10.0166C10.7063 9.85498 11.0632 9.61096 11.3317 9.29908C11.5879 9.00147 11.7349 8.67294 11.8443 8.4132C12.0709 7.87517 12.1911 7.53104 12.6427 7.22656L11.8602 6.0657C11.0077 6.64038 10.7521 7.39944 10.554 7.86983C10.4511 8.1143 10.3735 8.26628 10.2707 8.38563C10.1803 8.49071 10.0437 8.6001 9.77864 8.68846L10.2214 10.0166ZM12.6427 7.22656C12.7893 7.12773 13.1258 7.03823 13.6905 7.03061C14.2227 7.02343 14.8413 7.08884 15.4444 7.18511C16.0435 7.28075 16.6063 7.4034 17.0209 7.50265C17.2276 7.55215 17.3961 7.59551 17.5122 7.62629C17.5702 7.64167 17.615 7.65388 17.6449 7.66213C17.6599 7.66625 17.6711 7.66938 17.6783 7.6714C17.6819 7.67242 17.6845 7.67316 17.6861 7.67361C17.6869 7.67384 17.6875 7.67399 17.6878 7.67408C17.6879 7.67412 17.688 7.67414 17.688 7.67414C17.688 7.67414 17.688 7.67413 17.688 7.67413C17.6879 7.67412 17.6878 7.6741 17.8799 7.00097C18.072 6.32784 18.0719 6.32781 18.0718 6.32777C18.0717 6.32776 18.0716 6.32772 18.0715 6.32768C18.0712 6.32761 18.0709 6.32752 18.0705 6.32741C18.0698 6.3272 18.0687 6.32691 18.0674 6.32654C18.0649 6.32582 18.0613 6.3248 18.0567 6.32351C18.0475 6.32092 18.0342 6.31722 18.0172 6.31252C17.9831 6.30312 17.9337 6.28968 17.871 6.27304C17.7455 6.23977 17.5659 6.19359 17.3469 6.14114C16.9098 6.03649 16.3101 5.90559 15.6651 5.80262C15.0241 5.70029 14.3171 5.62203 13.6716 5.63074C13.0587 5.63901 12.3656 5.72495 11.8602 6.0657L12.6427 7.22656Z" fill="#01ABD3" mask="url(#path-4-inside-2_344_17285)"/>
<path d="M17.8752 1.33398H18.9999" stroke="#01ABD3" stroke-width="0.7" stroke-miterlimit="10" stroke-linecap="round" stroke-linejoin="round"/>
<path d="M17.8752 2.60059H18.9999" stroke="#01ABD3" stroke-width="0.7" stroke-miterlimit="10" stroke-linecap="round" stroke-linejoin="round"/>
<path d="M17.8752 3.86621H18.9999" stroke="#01ABD3" stroke-width="0.7" stroke-miterlimit="10" stroke-linecap="round" stroke-linejoin="round"/>
<path d="M17.8752 5.13184H18.9999" stroke="#01ABD3" stroke-width="0.7" stroke-miterlimit="10" stroke-linecap="round" stroke-linejoin="round"/>
<path d="M17.8752 6.39746H18.9999" stroke="#01ABD3" stroke-width="0.7" stroke-miterlimit="10" stroke-linecap="round" stroke-linejoin="round"/>
<path d="M17.8752 7.66309H18.9999" stroke="#01ABD3" stroke-width="0.7" stroke-miterlimit="10" stroke-linecap="round" stroke-linejoin="round"/>
<path d="M17.8752 8.92383H18.9999" stroke="#01ABD3" stroke-width="0.7" stroke-miterlimit="10" stroke-linecap="round" stroke-linejoin="round"/>
<path d="M17.8752 10.1895H18.9999" stroke="#01ABD3" stroke-width="0.7" stroke-miterlimit="10" stroke-linecap="round" stroke-linejoin="round"/>
<path d="M17.8752 11.4551H18.9999" stroke="#01ABD3" stroke-width="0.7" stroke-miterlimit="10" stroke-linecap="round" stroke-linejoin="round"/>
<path d="M1 1.3916H2.12464" stroke="#01ABD3" stroke-width="0.7" stroke-miterlimit="10" stroke-linecap="round" stroke-linejoin="round"/>
<path d="M1 2.6582H2.12464" stroke="#01ABD3" stroke-width="0.7" stroke-miterlimit="10" stroke-linecap="round" stroke-linejoin="round"/>
<path d="M1 3.92383H2.12464" stroke="#01ABD3" stroke-width="0.7" stroke-miterlimit="10" stroke-linecap="round" stroke-linejoin="round"/>
<path d="M1 5.18945H2.12464" stroke="#01ABD3" stroke-width="0.7" stroke-miterlimit="10" stroke-linecap="round" stroke-linejoin="round"/>
<path d="M1 6.45508H2.12464" stroke="#01ABD3" stroke-width="0.7" stroke-miterlimit="10" stroke-linecap="round" stroke-linejoin="round"/>
<path d="M1 7.7207H2.12464" stroke="#01ABD3" stroke-width="0.7" stroke-miterlimit="10" stroke-linecap="round" stroke-linejoin="round"/>
<path d="M1 8.98145H2.12464" stroke="#01ABD3" stroke-width="0.7" stroke-miterlimit="10" stroke-linecap="round" stroke-linejoin="round"/>
<path d="M1 10.2471H2.12464" stroke="#01ABD3" stroke-width="0.7" stroke-miterlimit="10" stroke-linecap="round" stroke-linejoin="round"/>
<path d="M1 11.5127H2.12464" stroke="#01ABD3" stroke-width="0.7" stroke-miterlimit="10" stroke-linecap="round" stroke-linejoin="round"/>
</svg>
