<svg width="17" height="18" viewBox="0 0 17 18" fill="none" xmlns="http://www.w3.org/2000/svg">
<path d="M9.30579 2.14258H7.75806" stroke="#01ABD3" stroke-width="0.7"/>
<path d="M16.5996 8.37106V15.8069C16.5996 16.4656 16.0656 16.9997 15.4068 16.9997H1.696C1.03724 16.9997 0.503215 16.4656 0.503215 15.8069V5.60449M16.5996 8.37106L14.1239 11.2672C13.7705 11.6806 13.1821 11.8026 12.6934 11.5637L0.503215 5.60449M16.5996 8.37106L0.503215 5.60449" stroke="#01ABD3" stroke-width="0.7"/>
<path d="M0.754395 5.64432V2.97448C0.754395 2.51503 1.12685 2.14258 1.5863 2.14258V2.14258H1.89585" stroke="#01ABD3" stroke-width="0.7"/>
<path d="M16.3093 8.3335V2.97448C16.3093 2.51504 15.9369 2.14258 15.4774 2.14258V2.14258H15.1679" stroke="#01ABD3" stroke-width="0.7"/>
<path d="M1.89575 3.05745V2.19279C1.89575 1.53403 2.42978 1 3.08854 1H6.54565C7.2044 1 7.73843 1.53403 7.73843 2.19279V3.05745C7.73843 3.7162 7.2044 4.25023 6.54565 4.25023H3.08854C2.42978 4.25023 1.89575 3.71621 1.89575 3.05745Z" stroke="#01ABD3" stroke-width="0.7"/>
<path d="M9.32446 3.05745V2.19279C9.32446 1.53403 9.85849 1 10.5173 1H13.9744C14.6331 1 15.1671 1.53403 15.1671 2.19279V3.05745C15.1671 3.7162 14.6331 4.25023 13.9744 4.25023H10.5173C9.85849 4.25023 9.32446 3.71621 9.32446 3.05745Z" stroke="#01ABD3" stroke-width="0.7"/>
</svg>
