<svg width="20" height="16" viewBox="0 0 20 16" fill="none" xmlns="http://www.w3.org/2000/svg">
<path d="M3.43701 5.09218V4.23077C3.43701 2.44646 4.88348 1 6.66778 1H13.4985C15.2829 1 16.7293 2.44646 16.7293 4.23077V5.09218" stroke="#01ABD3" stroke-width="0.7" stroke-linecap="round"/>
<path d="M16.6 5.08301H15.3666C14.7223 5.08301 14.2 5.60533 14.2 6.24964C14.2 6.89395 13.6777 7.41627 13.0334 7.41627H6.96663C6.32232 7.41627 5.8 6.89395 5.8 6.24964C5.8 5.60533 5.27768 5.08301 4.63337 5.08301H3.4C2.07452 5.08301 1 6.15752 1 7.48301V8.85202C1 10.6363 2.44646 12.0828 4.23077 12.0828H15.7692C17.5535 12.0828 19 10.6363 19 8.85202V7.48301C19 6.15752 17.9255 5.08301 16.6 5.08301Z" stroke="#01ABD3" stroke-width="0.7" stroke-linecap="round"/>
<path d="M16.0645 12.2002V15.0001" stroke="#01ABD3" stroke-width="0.7" stroke-linecap="round"/>
<path d="M3.88037 12.2002V15.0001" stroke="#01ABD3" stroke-width="0.7" stroke-linecap="round"/>
</svg>
