<svg width="17" height="19" viewBox="0 0 17 19" fill="none" xmlns="http://www.w3.org/2000/svg">
<path d="M9.30572 1H7.85778C7.11562 1 6.4792 1.46799 5.94267 1.98075C5.12424 2.76292 4.0665 2.86756 3.16443 2.7176C2.34545 2.58145 1.47279 2.66513 0.971315 3.32678C0.422623 4.05073 0.548968 5.12904 1.15076 5.80948C3.84708 8.85817 2.79689 11.6736 1.28273 13.4027C0.632042 14.1457 0.378663 15.3044 0.92604 16.1265C1.45489 16.9208 2.44707 17.0882 3.37017 16.8464C5.39285 16.3164 6.60356 16.9501 7.61566 17.509C8.21036 17.8374 8.91109 17.7268 9.51507 17.4158C10.9151 16.6949 12.3743 16.6306 13.5174 16.8362C14.4763 17.0087 15.5576 16.8072 16.0795 15.9845C16.5757 15.2023 16.4169 14.1397 15.7919 13.456C13.1238 10.5379 14.3076 7.5909 15.8677 5.7789C16.446 5.1072 16.566 4.04049 16.0221 3.34059C15.5064 2.67694 14.6343 2.66579 13.8035 2.79312C12.6783 2.96557 11.7558 2.46533 11.1278 1.87156C10.623 1.39441 10.0003 1 9.30572 1Z" stroke="#01ABD3" stroke-width="0.7" stroke-linecap="round"/>
<path d="M8.60155 2.83105H8.50837C7.7677 2.83105 7.10606 3.30687 6.47351 3.69219C5.64162 4.19894 4.48271 4.32309 3.71114 4.24139C3.32054 4.20002 2.90914 4.27006 2.63817 4.55441C2.33942 4.86791 2.4125 5.40318 2.71437 5.71368C5.13036 8.19869 4.89442 11.5132 2.45885 13.8578C2.04743 14.2538 1.90553 14.9641 2.38762 15.2702C2.86229 15.5716 3.43381 15.7029 3.97676 15.5568C5.37538 15.1804 6.59861 15.4581 7.49709 15.7733C8.13527 15.9972 8.83393 15.8919 9.47684 15.682C10.6616 15.2953 12.1632 15.3686 13.1636 15.5764C13.7075 15.6893 14.3397 15.5569 14.5589 15.0465C14.7617 14.5739 14.7146 13.9778 14.3628 13.6027C11.5716 10.6267 13.1063 7.30751 14.4042 5.79333C14.7195 5.42551 14.7668 4.83171 14.3692 4.55492C13.995 4.29444 13.514 4.27786 13.0628 4.34284C12.1757 4.47056 11.2064 4.05493 10.5306 3.59247C9.95871 3.20113 9.2945 2.83105 8.60155 2.83105Z" stroke="#01ABD3" stroke-width="0.7" stroke-linecap="round" stroke-dasharray="1.95 1.95"/>
</svg>
