<svg width="19" height="19" viewBox="0 0 19 19" fill="none" xmlns="http://www.w3.org/2000/svg">
<path d="M15.8386 14.0893L7.34054 14.1279C7.21561 14.1516 5.7309 13.6696 6.90636 12.5919C6.36294 11.4807 7.61414 11.1723 8.43674 11.0443C11.1228 7.5388 16.9759 7.25924 16.4364 8.62261C16.1463 9.18178 15.4008 8.46144 12.9305 9.50166C10.5676 10.4966 10.3026 10.8996 10.1991 11.0451C10.7604 11.0418 12.7992 10.5622 15.4406 11.0813C16.5209 11.5878 15.8795 12.3386 15.6976 12.4735C16.0771 12.605 16.8719 13.392 15.8386 14.0893Z" stroke="#01ABD3" stroke-width="0.7"/>
<path d="M7.79858 12.6094L14.745 12.544" stroke="#01ABD3" stroke-width="0.7"/>
<path d="M7.75702 16.198C7.7179 16.198 7.68639 16.1663 7.68663 16.1271L7.69796 14.3266L7.83964 14.3266L7.82831 16.1272C7.82806 16.1663 7.79615 16.198 7.75702 16.198Z" stroke="#01ABD3" stroke-width="0.420839"/>
<path d="M9.15766 16.2332C9.11854 16.2331 9.08702 16.2014 9.08727 16.1623L9.09859 14.3617L9.24027 14.3618L9.22894 16.1623C9.2287 16.2015 9.19678 16.2332 9.15766 16.2332Z" stroke="#01ABD3" stroke-width="0.420839"/>
<path d="M10.5566 16.2341C10.5175 16.2341 10.4859 16.2024 10.4862 16.1633L10.4975 14.3627L10.6392 14.3628L10.6279 16.1633C10.6276 16.2024 10.5957 16.2341 10.5566 16.2341Z" stroke="#01ABD3" stroke-width="0.420839"/>
<path d="M11.9577 16.2341C11.9186 16.2341 11.8871 16.2024 11.8873 16.1633L11.8986 14.3627L12.0403 14.3628L12.029 16.1633C12.0287 16.2024 11.9968 16.2341 11.9577 16.2341Z" stroke="#01ABD3" stroke-width="0.420839"/>
<path d="M13.3564 16.2361C13.3173 16.2361 13.2858 16.2043 13.286 16.1652L13.2973 14.3647L13.439 14.3647L13.4277 16.1653C13.4274 16.2044 13.3955 16.2361 13.3564 16.2361Z" stroke="#01ABD3" stroke-width="0.420839"/>
<path d="M14.7582 16.2351C14.7191 16.2351 14.6876 16.2034 14.6879 16.1642L14.6992 14.3637L14.8409 14.3637L14.8295 16.1643C14.8293 16.2034 14.7974 16.2351 14.7582 16.2351Z" stroke="#01ABD3" stroke-width="0.420839"/>
<path d="M5.04422 5.71825C5.04422 5.00319 5.32827 4.31742 5.8339 3.81179C6.33953 3.30617 7.0253 3.02211 7.74036 3.02211C8.11262 3.02211 8.4144 2.72033 8.4144 2.34807V2.01105C8.4144 1.45266 7.96173 1 7.40334 1H2.01105C1.45266 1 1 1.45266 1 2.01105C1 2.56944 1.51036 3.00318 1.91891 3.38382C1.93052 3.39464 1.94197 3.40569 1.95323 3.41695C2.20604 3.66976 2.34807 4.01265 2.34807 4.37018V8.4144C2.34807 8.77193 2.20604 9.11482 1.95323 9.36763C1.53976 9.7811 1 10.2365 1 10.8212V14.7643C1 15.7245 1.77838 16.5028 2.73855 16.5028H6.67585C7.63602 16.5028 8.4144 15.7245 8.4144 14.7643V11.8986C8.4144 11.8278 8.3773 11.7623 8.31666 11.7259C6.05527 10.0995 5.04422 8.4144 5.04422 5.71825ZM5.04422 5.71825H2.34807H5.04422ZM7.06633 3.10704V4.03316C7.06633 4.48008 7.24386 4.90869 7.55988 5.2247C7.87589 5.54072 8.3045 5.71825 8.75142 5.71825" fill="white"/>
<path d="M5.04422 5.71825C5.04422 5.00319 5.32827 4.31742 5.8339 3.81179C6.33953 3.30617 7.0253 3.02211 7.74036 3.02211V3.02211C8.11262 3.02211 8.4144 2.72033 8.4144 2.34807V2.01105C8.4144 1.45266 7.96173 1 7.40334 1H2.01105C1.45266 1 1 1.45266 1 2.01105V2.01105C1 2.56944 1.51036 3.00318 1.91891 3.38382C1.93052 3.39464 1.94197 3.40569 1.95323 3.41695C2.20604 3.66976 2.34807 4.01265 2.34807 4.37018V8.4144C2.34807 8.77193 2.20604 9.11482 1.95323 9.36763V9.36763C1.53976 9.7811 1 10.2365 1 10.8212V14.7643C1 15.7245 1.77838 16.5028 2.73855 16.5028H6.67585C7.63602 16.5028 8.4144 15.7245 8.4144 14.7643V11.8986C8.4144 11.8278 8.3773 11.7623 8.31666 11.7259V11.7259C6.05527 10.0995 5.04422 8.4144 5.04422 5.71825ZM5.04422 5.71825H2.34807M7.06633 3.10704V4.03316C7.06633 4.48008 7.24386 4.90869 7.55988 5.2247C7.87589 5.54072 8.3045 5.71825 8.75142 5.71825" stroke="#01ABD3" stroke-width="0.7"/>
</svg>
