<svg width="40" height="40" viewBox="0 0 40 40" fill="none" xmlns="http://www.w3.org/2000/svg">
<path d="M20.0017 3.33203C29.2067 3.33203 36.6683 10.7937 36.6683 19.9987C36.6683 29.2037 29.2067 36.6654 20.0017 36.6654C17.0562 36.6704 14.1626 35.8909 11.6183 34.407L3.34165 36.6654L5.59499 28.3854C4.10992 25.8402 3.32982 22.9454 3.33499 19.9987C3.33499 10.7937 10.7967 3.33203 20.0017 3.33203ZM14.3217 12.1654L13.9883 12.1787C13.7728 12.1935 13.5622 12.2502 13.3683 12.3454C13.1876 12.4479 13.0226 12.5759 12.8783 12.7254C12.6783 12.9137 12.565 13.077 12.4433 13.2354C11.8269 14.0369 11.4949 15.0209 11.5 16.032C11.5033 16.8487 11.7167 17.6437 12.05 18.387C12.7317 19.8904 13.8533 21.482 15.3333 22.957C15.69 23.312 16.04 23.6687 16.4167 24.0004C18.2557 25.6194 20.4471 26.787 22.8167 27.4104L23.7633 27.5554C24.0717 27.572 24.38 27.5487 24.69 27.5337C25.1753 27.5081 25.6491 27.3767 26.0783 27.1487C26.2964 27.0359 26.5094 26.9136 26.7167 26.782C26.7167 26.782 26.7872 26.7343 26.925 26.632C27.15 26.4654 27.2883 26.347 27.475 26.152C27.615 26.0076 27.7317 25.8398 27.825 25.6487C27.955 25.377 28.085 24.8587 28.1383 24.427C28.1783 24.097 28.1667 23.917 28.1617 23.8054C28.155 23.627 28.0067 23.442 27.845 23.3637L26.875 22.9287C26.875 22.9287 25.425 22.297 24.5383 21.8937C24.4455 21.8533 24.3461 21.8301 24.245 21.8254C24.1309 21.8134 24.0157 21.8262 23.907 21.8627C23.7983 21.8992 23.6987 21.9587 23.615 22.037C23.6067 22.0337 23.495 22.1287 22.29 23.5887C22.2208 23.6816 22.1256 23.7519 22.0163 23.7905C21.9071 23.829 21.7888 23.8342 21.6767 23.8054C21.568 23.7764 21.4616 23.7397 21.3583 23.6954C21.1517 23.6087 21.08 23.5754 20.9383 23.5154C19.9814 23.0985 19.0957 22.5345 18.3133 21.8437C18.1033 21.6604 17.9083 21.4604 17.7083 21.267C17.0527 20.639 16.4812 19.9287 16.0083 19.1537L15.91 18.9954C15.8404 18.8884 15.7834 18.7737 15.74 18.6537C15.6767 18.4087 15.8417 18.212 15.8417 18.212C15.8417 18.212 16.2467 17.7687 16.435 17.5287C16.6183 17.2954 16.7733 17.0687 16.8733 16.907C17.07 16.5904 17.1317 16.2654 17.0283 16.0137C16.5617 14.8737 16.0794 13.7398 15.5817 12.612C15.4833 12.3887 15.1917 12.2287 14.9267 12.197C14.8367 12.1859 14.7467 12.177 14.6567 12.1704C14.4329 12.1575 14.2085 12.1598 13.985 12.177L14.3217 12.1654Z" fill="#2CB472"/>
</svg>
