<svg width="89" height="13" viewBox="0 0 89 13" fill="none" xmlns="http://www.w3.org/2000/svg">
<path d="M15.6543 0.200195H13.552V10.8612H15.6543V0.200195Z" fill="black"/>
<path d="M11.137 0.796748H9.03465V11.4575H11.137V0.796748Z" fill="black"/>
<path d="M6.61967 1.46274H4.51733V12.1255H6.61967V1.46274Z" fill="black"/>
<path d="M2.10234 2.13613H0L8.01086e-06 12.8002H2.10235L2.10234 2.13613Z" fill="black"/>
<path d="M71.1809 5.8805L67.7959 2.11687H65.8169V10.831H67.8831V5.27121L70.9736 8.56518H71.3554L74.3928 5.27121V10.831H76.4589V2.11687H74.48L71.1809 5.8805Z" fill="black"/>
<path d="M86.3026 2.11687L81.1814 7.78072V2.11687H79.1152V10.831H81.0082L86.1294 5.16712V10.831H88.1956V2.11687H86.3026Z" fill="black"/>
<path d="M54.6879 5.30548C54.6879 6.69289 55.4466 7.7858 56.6112 8.24404L54.4274 10.831H56.9564L58.9429 8.4776H61.0926V10.831H63.1588V2.11687H57.8985C55.9372 2.11687 54.6879 3.45857 54.6879 5.30548ZM61.0938 4.03613V6.61292H58.2816C57.3433 6.61292 56.8401 6.08994 56.8401 5.32325C56.8401 4.55656 57.361 4.03359 58.2816 4.03359L61.0938 4.03613Z" fill="black"/>
<path d="M45.0864 3.85969C44.96 6.85663 44.3277 8.79113 43.0898 8.79113H42.78V10.883L43.11 10.9008C45.5922 11.0392 46.9642 8.86094 47.1893 4.10341H50.4542V10.831H52.5166V2.11687H45.156L45.0864 3.85969Z" fill="black"/>
<path d="M37.3086 1.99512C34.5141 1.99512 32.5035 3.92961 32.5035 6.4734C32.5035 9.10477 34.6911 10.9707 37.3086 10.9707C40.0349 10.9707 42.1529 9.00068 42.1529 6.4734C42.1529 3.94611 40.0349 1.99512 37.3086 1.99512ZM37.3086 8.87882C35.7293 8.87882 34.6532 7.85065 34.6532 6.4734C34.6532 5.06187 35.7305 4.06163 37.3086 4.06163C38.8867 4.06163 39.9995 5.10757 39.9995 6.4734C39.9995 7.83922 38.8715 8.87882 37.3086 8.87882Z" fill="black"/>
<path d="M30.3122 2.1333H23.0199L22.9503 3.87613C22.8466 6.38691 22.1916 8.77456 20.9537 8.80884L20.3809 8.82661V12.8006L22.4647 12.7964V10.8322H29.704V12.7964H31.8056V8.80884H30.3122V2.1333ZM28.246 8.80884H23.8367C24.5828 7.67657 24.9824 6.03784 25.0519 4.12111H28.246V8.80884Z" fill="black"/>
</svg>
