<svg width="101" height="102" viewBox="0 0 101 102" fill="none" xmlns="http://www.w3.org/2000/svg">
<path d="M22.6407 79.8711V77.7372H17.3101V76.3764L21.135 68.2758H22.7615L18.9367 76.3764H22.6407V73.1152H24.0901V76.3764H25.298V77.7372H24.0901V79.8711H22.6407ZM31.1392 80.1127C30.3876 80.1127 29.7166 79.9436 29.1261 79.6054C28.541 79.2618 28.0766 78.7975 27.733 78.2123C27.3949 77.6218 27.2258 76.9508 27.2258 76.1992V71.9476C27.2258 71.1961 27.3949 70.5251 27.733 69.9346C28.0766 69.3441 28.541 68.8797 29.1261 68.5415C29.7166 68.2033 30.3876 68.0342 31.1392 68.0342C31.8907 68.0342 32.5617 68.2033 33.1522 68.5415C33.7427 68.8797 34.2071 69.3441 34.5453 69.9346C34.8835 70.5251 35.0526 71.1961 35.0526 71.9476V76.1992C35.0526 76.9508 34.8835 77.6218 34.5453 78.2123C34.2071 78.7975 33.7427 79.2618 33.1522 79.6054C32.5617 79.9436 31.8907 80.1127 31.1392 80.1127ZM31.1392 78.7357C31.5955 78.7357 32.0088 78.6257 32.3792 78.4056C32.7496 78.1855 33.0449 77.8902 33.265 77.5198C33.4851 77.1441 33.5951 76.7307 33.5951 76.2798V71.8591C33.5951 71.4028 33.4851 70.9894 33.265 70.619C33.0449 70.2486 32.7496 69.9534 32.3792 69.7333C32.0088 69.5132 31.5955 69.4031 31.1392 69.4031C30.6882 69.4031 30.2749 69.5132 29.8991 69.7333C29.5287 69.9534 29.2335 70.2486 29.0134 70.619C28.7933 70.9894 28.6832 71.4028 28.6832 71.8591V76.2798C28.6832 76.7307 28.7933 77.1441 29.0134 77.5198C29.2335 77.8902 29.5287 78.1855 29.8991 78.4056C30.2749 78.6257 30.6882 78.7357 31.1392 78.7357ZM40.3699 75.386V74.2023H45.2012V75.386H40.3699ZM53.9479 80.1127C53.352 80.1127 52.7964 79.9892 52.2811 79.7423C51.7711 79.4953 51.3336 79.1571 50.9686 78.7277C50.6089 78.2928 50.3512 77.7936 50.1955 77.2299L51.5725 76.8595C51.6691 77.2407 51.8409 77.5708 52.0878 77.85C52.3348 78.1237 52.622 78.3385 52.9494 78.4942C53.2823 78.6445 53.6285 78.7196 53.9882 78.7196C54.4606 78.7196 54.8847 78.6069 55.2604 78.3814C55.6416 78.1506 55.9422 77.8473 56.1623 77.4715C56.3824 77.0904 56.4924 76.6743 56.4924 76.2234C56.4924 75.7564 56.377 75.335 56.1462 74.9592C55.9207 74.5781 55.6174 74.2774 55.2363 74.0573C54.8551 73.8372 54.4391 73.7272 53.9882 73.7272C53.4782 73.7272 53.0407 73.8346 52.6757 74.0493C52.316 74.2586 52.0315 74.5163 51.8221 74.8223L50.5498 74.3392L50.9041 68.2758H57.1286V69.6366H51.5966L52.2328 69.0408L51.9348 73.8963L51.6208 73.4856C51.9429 73.1421 52.3267 72.8763 52.7723 72.6884C53.2232 72.5006 53.6822 72.4066 54.1492 72.4066C54.8686 72.4066 55.5127 72.5757 56.0818 72.9139C56.6508 73.2467 57.1017 73.703 57.4346 74.2828C57.7674 74.8572 57.9338 75.5041 57.9338 76.2234C57.9338 76.9374 57.7513 77.5896 57.3862 78.1801C57.0212 78.7652 56.5354 79.235 55.9288 79.5893C55.3275 79.9382 54.6673 80.1127 53.9479 80.1127ZM63.773 80.1127C63.0214 80.1127 62.3504 79.9436 61.7599 79.6054C61.1748 79.2618 60.7104 78.7975 60.3669 78.2123C60.0287 77.6218 59.8596 76.9508 59.8596 76.1992V71.9476C59.8596 71.1961 60.0287 70.5251 60.3669 69.9346C60.7104 69.3441 61.1748 68.8797 61.7599 68.5415C62.3504 68.2033 63.0214 68.0342 63.773 68.0342C64.5245 68.0342 65.1955 68.2033 65.786 68.5415C66.3765 68.8797 66.8409 69.3441 67.1791 69.9346C67.5173 70.5251 67.6864 71.1961 67.6864 71.9476V76.1992C67.6864 76.9508 67.5173 77.6218 67.1791 78.2123C66.8409 78.7975 66.3765 79.2618 65.786 79.6054C65.1955 79.9436 64.5245 80.1127 63.773 80.1127ZM63.773 78.7357C64.2293 78.7357 64.6426 78.6257 65.013 78.4056C65.3834 78.1855 65.6787 77.8902 65.8988 77.5198C66.1189 77.1441 66.2289 76.7307 66.2289 76.2798V71.8591C66.2289 71.4028 66.1189 70.9894 65.8988 70.619C65.6787 70.2486 65.3834 69.9534 65.013 69.7333C64.6426 69.5132 64.2293 69.4031 63.773 69.4031C63.322 69.4031 62.9087 69.5132 62.5329 69.7333C62.1625 69.9534 61.8673 70.2486 61.6472 70.619C61.4271 70.9894 61.317 71.4028 61.317 71.8591V76.2798C61.317 76.7307 61.4271 77.1441 61.6472 77.5198C61.8673 77.8902 62.1625 78.1855 62.5329 78.4056C62.9087 78.6257 63.322 78.7357 63.773 78.7357ZM77.9317 80.1127C76.7775 80.1127 75.7978 79.8577 74.9926 79.3477C74.1873 78.8377 73.5727 78.1291 73.1486 77.2219C72.7299 76.3147 72.5205 75.2652 72.5205 74.0734C72.5205 72.8817 72.7299 71.8322 73.1486 70.925C73.5727 70.0178 74.1873 69.3092 74.9926 68.7992C75.7978 68.2892 76.7775 68.0342 77.9317 68.0342C79.2737 68.0342 80.3769 68.3751 81.2412 69.0569C82.1108 69.7386 82.7094 70.6566 83.0368 71.8107L81.5794 72.1973C81.3432 71.333 80.9218 70.6512 80.3151 70.152C79.7085 69.6527 78.914 69.4031 77.9317 69.4031C77.0674 69.4031 76.348 69.5991 75.7737 69.9909C75.1993 70.3828 74.7671 70.9304 74.4772 71.6336C74.1873 72.3315 74.0397 73.1447 74.0344 74.0734C74.029 74.9968 74.1712 75.8101 74.4611 76.5133C74.751 77.2112 75.1858 77.7587 75.7656 78.156C76.3454 78.5478 77.0674 78.7438 77.9317 78.7438C78.914 78.7438 79.7085 78.4942 80.3151 77.9949C80.9218 77.4903 81.3432 76.8085 81.5794 75.9496L83.0368 76.3361C82.7094 77.4849 82.1108 78.4029 81.2412 79.09C80.3769 79.7718 79.2737 80.1127 77.9317 80.1127Z" fill="#01ABD3"/>
<path d="M41.9474 60.8975C41.6888 60.8975 41.4043 60.8975 41.1457 60.8975C37.2661 60.6646 33.7744 58.7755 31.6019 55.7478C29.6621 53.0307 29.1189 49.9254 29.9983 46.3025C30.7225 43.2749 31.8347 40.2989 33.4124 37.1678C35.3263 33.3638 37.654 29.4821 40.4991 25.3158C40.6284 25.1088 40.7836 24.9277 40.9387 24.7207L41.2491 24.3843L41.7923 23.8926L42.3095 24.3843L42.8785 25.1606C43.2665 25.704 43.6545 26.2474 44.0165 26.7909C46.6547 30.6466 49.9652 35.8221 52.3189 41.5152C53.1465 43.5336 54.1293 46.2508 54.2069 49.2267C54.3104 52.0991 53.3276 54.6092 51.2326 56.9123C48.9048 59.4742 45.5425 60.8975 41.9733 60.8975H41.9474ZM41.7147 25.7816C41.7147 25.7816 41.5853 25.9369 41.5336 26.0145C38.7145 30.1549 36.4126 33.9848 34.5245 37.7371C32.9985 40.7647 31.9122 43.663 31.2139 46.5872C30.438 49.8219 30.9036 52.5649 32.6106 54.9715C34.5504 57.6886 37.6799 59.3966 41.1715 59.6036C44.689 59.8365 47.9737 58.5167 50.2239 56.0584C52.0861 54.014 52.9655 51.8144 52.862 49.2784C52.7844 46.5095 51.8533 43.9477 51.0515 42.0327C48.7496 36.4432 45.4649 31.3453 42.8785 27.5413C42.5164 26.9979 42.1285 26.4545 41.7405 25.9369L41.6629 25.8075L41.7147 25.7816Z" fill="#01ABD3"/>
<path d="M58.6559 36.1316C58.4749 36.1316 58.3197 36.1316 58.1387 36.1316C55.7075 35.9763 53.5349 34.8118 52.1641 32.8969C50.9485 31.2149 50.6123 29.2223 51.1554 26.9709C51.5951 25.1336 52.2676 23.2963 53.2504 21.3814C54.4143 19.0783 55.8109 16.7234 57.5697 14.1616C57.6472 14.0322 57.7507 13.9287 57.8542 13.7993C57.9835 13.644 58.0093 13.5923 58.0869 13.5405L58.6301 13.0488L59.406 14.0063C59.6646 14.3686 59.8974 14.705 60.156 15.0673C61.7596 17.4221 63.777 20.5533 65.1995 24.0209C65.7168 25.263 66.3117 26.9192 66.3634 28.7824C66.4151 30.5938 65.8202 32.1723 64.5012 33.6215C63.0269 35.2259 60.9578 36.1057 58.7077 36.1057L58.6559 36.1316ZM58.5266 15.0673C56.8713 17.4998 55.5264 19.7511 54.4143 21.9766C53.509 23.788 52.8624 25.5218 52.4227 27.2815C51.9831 29.1705 52.2417 30.7491 53.2245 32.1465C54.3625 33.725 56.173 34.7083 58.2163 34.8377C60.2854 34.9412 62.1734 34.2167 63.4925 32.7675C64.5788 31.5771 65.0702 30.3091 65.0185 28.86C64.9667 27.2297 64.4236 25.7029 63.958 24.5643C62.5873 21.2261 60.6992 18.2761 59.0439 15.8436C58.8628 15.5848 58.7077 15.3519 58.5266 15.0932V15.0673Z" fill="#01ABD3"/>
<path d="M50.27 101.021C22.5632 101.021 0 78.4457 0 50.7243C0 23.0028 22.5289 0.427734 50.27 0.427734C78.0111 0.427734 100.54 23.0028 100.54 50.7243C100.54 78.4457 77.9768 101.021 50.27 101.021ZM50.27 2.14317C23.4891 2.14317 1.71453 23.9292 1.71453 50.7243C1.71453 77.5193 23.4891 99.3054 50.27 99.3054C77.051 99.3054 98.8255 77.5193 98.8255 50.7243C98.8255 23.9292 77.0167 2.14317 50.27 2.14317Z" fill="#01ABD3"/>
<path d="M39.8422 57.6577C39.5619 57.5774 32.9905 55.5966 32.5856 50.9123C32.1496 45.773 34.5477 40.9817 34.6412 40.7676L36.0738 41.3029C36.0738 41.3029 33.738 46.0407 34.1428 50.832C34.4543 54.633 40.2782 56.3996 40.3405 56.4264L39.8422 57.6844V57.6577Z" fill="#01ABD3"/>
</svg>
