<svg width="103" height="103" viewBox="0 0 103 103" fill="none" xmlns="http://www.w3.org/2000/svg">
<path d="M51.2699 101.54C79.0331 101.54 101.54 79.0331 101.54 51.2699C101.54 23.5066 79.0331 1 51.2699 1C23.5066 1 1 23.5066 1 51.2699C1 79.0331 23.5066 101.54 51.2699 101.54Z" fill="white" stroke="#01ABD3" stroke-width="1.74427" stroke-miterlimit="10"/>
<path d="M67.1423 23.6074V28.003C67.1423 32.1543 65.433 36.1313 62.3979 38.9919L40.9783 59.1556C37.5246 62.4 35.5711 66.9002 35.5711 71.6446V79.8776C35.5711 79.8776 39.1293 83.6452 51.3392 83.6452C63.5491 83.6452 67.1074 79.8776 67.1074 79.8776V71.6446C67.1074 66.9351 65.1538 62.4 61.7002 59.1556L40.2805 38.9919C37.2455 36.1313 35.5361 32.1892 35.5361 28.003V23.6074" stroke="#01ABD3" stroke-width="1.74427" stroke-miterlimit="10"/>
<path d="M51.2695 25.3482C61.5579 25.3482 69.8983 23.2241 69.8983 20.6038C69.8983 17.9835 61.5579 15.8594 51.2695 15.8594C40.9811 15.8594 32.6406 17.9835 32.6406 20.6038C32.6406 23.2241 40.9811 25.3482 51.2695 25.3482Z" stroke="#01ABD3" stroke-width="1.74427" stroke-miterlimit="10"/>
<path d="M51.2695 86.6801C61.5579 86.6801 69.8983 83.3689 69.8983 79.2844C69.8983 75.1998 61.5579 71.8887 51.2695 71.8887C40.9811 71.8887 32.6406 75.1998 32.6406 79.2844C32.6406 83.3689 40.9811 86.6801 51.2695 86.6801Z" stroke="#01ABD3" stroke-width="1.74427" stroke-miterlimit="10"/>
</svg>
