<svg width="103" height="103" viewBox="0 0 103 103" fill="none" xmlns="http://www.w3.org/2000/svg">
<path d="M51.2699 101.54C79.0331 101.54 101.54 79.0331 101.54 51.2699C101.54 23.5066 79.0331 1 51.2699 1C23.5066 1 1 23.5066 1 51.2699C1 79.0331 23.5066 101.54 51.2699 101.54Z" fill="white" stroke="#01ABD3" stroke-width="1.74427" stroke-miterlimit="10"/>
<path d="M61.4567 86.5422C53.2238 86.5422 46.4909 83.263 46.4909 79.2163C46.4909 78.5884 46.6654 77.9604 46.9793 77.3674C33.5485 76.7394 23.8154 73.3556 23.8154 69.274C23.8154 64.6691 35.8858 61.041 51.2702 61.041C66.6547 61.041 78.725 64.6342 78.725 69.274C78.725 71.1927 76.6668 72.9718 72.7596 74.437C75.1318 75.7627 76.4226 77.472 76.4226 79.2512C76.4226 83.2979 69.7246 86.5771 61.4567 86.5771V86.5422ZM51.2702 61.4596C36.3742 61.4596 24.2689 64.9482 24.2689 69.2391C24.2689 73.0765 34.2113 76.3557 47.3631 76.9139H47.7468L47.5375 77.2627C47.1537 77.8907 46.9444 78.5535 46.9444 79.2163C46.9444 83.0188 53.468 86.1236 61.4567 86.1236C69.4455 86.1236 75.9691 83.0188 75.9691 79.2163C75.9691 77.5069 74.6086 75.8324 72.0968 74.5417L71.6433 74.2975L72.1317 74.123C76.1086 72.7276 78.2715 70.9834 78.2715 69.2391C78.2715 64.9482 66.1663 61.4596 51.2702 61.4596Z" stroke="#01ABD3" stroke-width="0.872135" stroke-miterlimit="10"/>
<path d="M57.1792 15.9688L75.2671 24.7206L55.8946 64.759C54.8462 66.9258 52.2216 67.8649 50.0234 66.8013L39.8489 61.8784C37.6821 60.83 36.743 58.2054 37.8066 56.0072L57.1792 15.9688Z" fill="white" stroke="#01ABD3" stroke-width="1.74427" stroke-miterlimit="10"/>
<path d="M40.5601 50.2969L58.6307 59.0531" stroke="#01ABD3" stroke-width="1.74427" stroke-miterlimit="10"/>
<path d="M45.1294 40.873L63.2 49.6293" stroke="#01ABD3" stroke-width="1.74427" stroke-miterlimit="10"/>
<path d="M49.6997 31.457L67.7703 40.1784" stroke="#01ABD3" stroke-width="1.74427" stroke-miterlimit="10"/>
<path d="M54.2695 21.998L72.3402 30.7543" stroke="#01ABD3" stroke-width="1.74427" stroke-miterlimit="10"/>
</svg>
