<svg width="103" height="103" viewBox="0 0 103 103" fill="none" xmlns="http://www.w3.org/2000/svg">
<path d="M51.2699 101.54C79.0331 101.54 101.54 79.0331 101.54 51.2699C101.54 23.5066 79.0331 1 51.2699 1C23.5066 1 1 23.5066 1 51.2699C1 79.0331 23.5066 101.54 51.2699 101.54Z" fill="white" stroke="#01ABD3" stroke-width="1.74427" stroke-miterlimit="10"/>
<path d="M60.0611 56.8498C67.209 56.8498 73.0036 51.0553 73.0036 43.9073C73.0036 36.7594 67.209 30.9648 60.0611 30.9648C52.9132 30.9648 47.1187 36.7594 47.1187 43.9073C47.1187 51.0553 52.9132 56.8498 60.0611 56.8498Z" fill="white" stroke="#01ABD3" stroke-width="1.74427" stroke-miterlimit="10"/>
<path d="M42.6185 80.779C53.4656 80.779 62.259 71.9857 62.259 61.1385C62.259 50.2914 53.4656 41.498 42.6185 41.498C31.7713 41.498 22.978 50.2914 22.978 61.1385C22.978 71.9857 31.7713 80.779 42.6185 80.779Z" fill="white" stroke="#01ABD3" stroke-width="1.74427" stroke-miterlimit="10"/>
<path d="M32.8859 35.5677C35.4098 35.5677 37.4559 33.5217 37.4559 30.9977C37.4559 28.4738 35.4098 26.4277 32.8859 26.4277C30.362 26.4277 28.3159 28.4738 28.3159 30.9977C28.3159 33.5217 30.362 35.5677 32.8859 35.5677Z" fill="white" stroke="#01ABD3" stroke-width="1.74427" stroke-miterlimit="10"/>
<path d="M81.1672 70.1412C77.888 71.746 76.5624 73.0716 74.9576 76.3508C73.3529 73.0716 72.0273 71.746 68.748 70.1412C72.0273 68.5365 73.3529 67.2109 74.9576 63.9316C76.5624 67.2109 77.888 68.5365 81.1672 70.1412Z" fill="white"/>
<path d="M81.1672 70.1412C77.888 71.746 76.5624 73.0716 74.9576 76.3508C73.3529 73.0716 72.0273 71.746 68.748 70.1412C72.0273 68.5365 73.3529 67.2109 74.9576 63.9316C76.5624 67.2109 77.888 68.5365 81.1672 70.1412Z" stroke="#01ABD3" stroke-width="1.74427" stroke-miterlimit="10"/>
<path d="M30.0953 56.8516C30.0953 56.8516 28.1766 63.4798 32.8861 70.108C37.0375 75.9688 44.6076 75.9688 44.6076 75.9688" fill="white"/>
<path d="M30.0953 56.8516C30.0953 56.8516 28.1766 63.4798 32.8861 70.108C37.0375 75.9688 44.6076 75.9688 44.6076 75.9688" stroke="#01ABD3" stroke-width="1.74427" stroke-miterlimit="10"/>
</svg>
