<svg width="25" height="25" viewBox="0 0 25 25" fill="none" xmlns="http://www.w3.org/2000/svg">
<path d="M8.08227 9.62109H5.94234C5.72294 9.62109 5.5396 9.54697 5.3923 9.39874C5.245 9.25051 5.17084 9.06677 5.16981 8.84751C5.16878 8.62825 5.24294 8.44502 5.3923 8.29782C5.54166 8.15062 5.725 8.07702 5.94234 8.07702H8.08227V5.94003C8.08227 5.72077 8.15643 5.53703 8.30476 5.3888C8.45205 5.24057 8.6354 5.16645 8.8548 5.16645C9.0742 5.16645 9.25755 5.24057 9.40485 5.3888C9.55215 5.53703 9.62631 5.72026 9.62734 5.93848V8.07702H11.7657C11.9851 8.07702 12.1685 8.15113 12.3158 8.29937C12.4631 8.4476 12.5372 8.63134 12.5383 8.8506C12.5393 9.06985 12.4651 9.25308 12.3158 9.40029C12.1664 9.54749 11.9831 9.62109 11.7657 9.62109H9.62734V11.7596C9.62734 11.9778 9.55318 12.1611 9.40485 12.3093C9.25652 12.4575 9.07266 12.5311 8.85326 12.5301C8.63386 12.5291 8.45051 12.4555 8.30321 12.3093C8.15592 12.1631 8.08227 11.9794 8.08227 11.7581V9.62109ZM8.8548 17.6966C6.3796 17.6966 4.285 16.8411 2.571 15.1303C0.857 13.4174 0 11.3252 0 8.85369C0 6.38215 0.855969 4.28891 2.56791 2.57396C4.27985 0.859016 6.3729 0.00102938 8.84708 0C11.3213 0 13.4164 0.856443 15.1324 2.56933C16.8485 4.28324 17.7065 6.37649 17.7065 8.84905C17.7065 9.92167 17.5165 10.9598 17.1364 11.9634C16.7563 12.9671 16.2567 13.8256 15.6377 14.5389L24.7675 23.6597C24.9117 23.8039 24.989 23.9814 24.9993 24.1925C25.0085 24.4014 24.9313 24.5882 24.7675 24.7529C24.6027 24.9177 24.4204 25 24.2205 25C24.0207 25 23.8384 24.9177 23.6736 24.7529L14.5453 15.6306C13.7728 16.2884 12.8843 16.7974 11.8801 17.1577C10.8758 17.518 9.86631 17.6981 8.85171 17.6981M8.85171 16.154C10.9015 16.154 12.6325 15.4489 14.0447 14.0387C15.4559 12.6284 16.1614 10.8985 16.1614 8.84905C16.1614 6.79956 15.4569 5.0702 14.0478 3.66098C12.6387 2.25177 10.9082 1.54664 8.85635 1.54561C6.80552 1.54561 5.07453 2.25074 3.66336 3.66098C2.2522 5.07123 1.5461 6.80059 1.54507 8.84905C1.54404 10.8975 2.24962 12.6269 3.66182 14.0371C5.07401 15.4474 6.80449 16.1525 8.85326 16.1525" fill="#656565"/>
</svg>
